# xmcd
#
# Track frame offsets: 
#        150
#        24314
#        42101
#        61528
#        86836
#        113275
#        131039
#        145491
#
# Disc length: 2310 seconds
#
# Revision: 0
# Processed by: cddbd v1.5.2PL0 Copyright (c) Steve Scherf et al.
# Submitted via: ExactAudioCopy v0.99pb4
#
DISCID=5f090408
DTITLE=Keef Hartley - Lancashire Hustler
DYEAR=1973
DGENRE=Blues
TTITLE0=Circles
TTITLE1=You And Me
TTITLE2=Shovel A Minor
TTITLE3=Australian Lady
TTITLE4=Action
TTITLE5=Something About You
TTITLE6=Jennie's Father
TTITLE7=Dance To The Music
EXTD=
EXTT0=
EXTT1=
EXTT2=
EXTT3=
EXTT4=
EXTT5=
EXTT6=
EXTT7=
PLAYORDER=
